<?xml version="1.0" standalone="no"?>
<!DOCTYPE svg PUBLIC "-//W3C//DTD SVG 20010904//EN"
 "http://www.w3.org/TR/2001/REC-SVG-20010904/DTD/svg10.dtd">
<svg version="1.0" xmlns="http://www.w3.org/2000/svg"
 width="200.000000pt" height="200.000000pt" viewBox="0 0 200.000000 200.000000"
 preserveAspectRatio="xMidYMid meet">
<metadata>
Created by potrace 1.10, written by Peter Selinger 2001-2011
</metadata>
<g transform="translate(0.000000,200.000000) scale(0.100000,-0.100000)"
fill="#000000" stroke="none">
<path d="M775 1964 c-293 -65 -543 -260 -675 -529 -80 -163 -95 -229 -95 -435
0 -150 4 -187 23 -258 93 -344 360 -608 712 -704 74 -20 107 -23 250 -22 189
1 263 16 404 82 271 127 463 354 548 647 20 71 23 101 22 255 0 160 -3 182
-27 263 -105 342 -360 595 -693 688 -105 29 -363 36 -469 13z m404 -29 c370
-79 660 -366 741 -733 26 -117 26 -297 1 -412 -85 -378 -388 -667 -779 -741
-83 -16 -307 -6 -392 17 -327 87 -583 330 -683 649 -140 446 67 926 490 1139
195 97 412 126 622 81z"/>
<path d="M850 1898 c-141 -20 -310 -92 -422 -180 -88 -70 -108 -90 -169 -171
-113 -150 -173 -315 -185 -507 -25 -398 241 -785 626 -908 114 -37 182 -45
327 -40 119 5 151 10 233 36 243 80 434 248 545 477 162 335 100 739 -157
1015 -197 213 -505 320 -798 278z m222 -80 c-12 -12 -54 -7 -59 8 -2 6 10 8
33 6 23 -3 32 -8 26 -14z m-172 5 c0 -5 -7 -17 -15 -27 -14 -18 -16 -18 -33
-3 -23 21 -32 21 -32 2 0 -9 -11 -21 -25 -27 -20 -9 -74 -78 -61 -78 21 0 66
25 62 35 -7 21 28 12 41 -10 19 -30 15 -43 -6 -19 l-17 22 -11 -29 c-8 -20
-16 -27 -27 -23 -8 3 -34 -6 -58 -20 -24 -14 -38 -26 -31 -26 6 0 19 -3 27 -6
12 -5 15 -2 10 10 -4 10 2 19 20 27 59 27 35 -22 -32 -63 -40 -25 -130 -35
-111 -12 14 17 39 18 39 2 1 -13 30 20 30 33 0 12 -73 -18 -86 -36 -15 -21
-65 -15 -91 10 -21 22 -8 30 42 26 20 -2 20 -2 1 -16 -11 -8 -15 -15 -9 -15 6
0 21 8 34 18 l22 19 -33 6 c-21 5 -43 2 -61 -7 -24 -12 -30 -12 -40 0 -8 10
-5 19 17 37 23 20 32 23 51 14 18 -8 27 -6 43 8 19 17 21 17 38 2 38 -35 89
-11 80 38 -4 18 -1 25 10 25 19 0 52 29 52 46 0 14 16 21 75 30 22 3 42 8 44
10 8 7 41 4 41 -3z m105 -13 c11 -12 28 -20 39 -18 16 2 24 -5 31 -27 13 -40
55 -46 82 -12 15 20 23 23 38 15 13 -8 25 -7 44 4 22 13 31 13 58 2 44 -19 34
-44 -17 -44 -21 0 -50 -6 -65 -14 -23 -12 -25 -15 -8 -20 10 -3 35 -6 55 -8
31 -2 35 -4 27 -19 -11 -22 -11 -60 0 -78 8 -12 13 -12 35 2 14 9 27 17 28 17
9 0 7 -58 -3 -82 -12 -29 -29 -29 -29 0 0 15 2 15 11 2 8 -12 9 -10 4 9 -4 13
-3 21 2 18 5 -3 9 4 9 15 0 19 -1 19 -18 -2 -17 -21 -25 -80 -12 -93 8 -8 40
32 53 65 8 19 10 20 10 4 1 -16 3 -16 17 -5 14 11 14 13 0 21 -9 5 -16 18 -16
28 0 11 -5 20 -11 20 -6 0 -9 6 -6 13 2 6 10 11 16 9 6 -1 14 5 17 13 8 21 34
0 34 -27 0 -18 -2 -19 -17 -7 -14 12 -16 12 -12 0 3 -8 16 -21 29 -30 23 -15
24 -15 17 2 -4 10 -7 26 -7 36 0 9 -9 27 -20 39 -12 13 -17 28 -13 38 5 14 2
16 -22 10 -28 -7 -45 4 -45 32 0 19 13 15 78 -28 48 -31 62 -45 62 -64 0 -14
9 -31 21 -39 17 -12 19 -19 10 -34 -23 -44 22 -89 65 -65 14 8 22 5 37 -14 10
-13 26 -24 35 -24 12 0 9 6 -12 23 -17 14 -27 30 -25 41 3 14 14 4 45 -40 22
-32 44 -65 48 -72 13 -22 -21 -24 -51 -4 -31 22 -83 37 -83 24 0 -5 11 -19 25
-32 18 -17 28 -21 36 -13 8 8 7 11 -4 10 -17 -2 -25 15 -10 20 13 5 49 -24 41
-32 -4 -4 -27 -10 -51 -12 -41 -5 -45 -3 -50 20 -4 13 -22 36 -40 50 l-34 26
4 -23 c3 -14 12 -23 21 -22 10 0 16 -5 14 -12 -1 -8 2 -11 9 -6 8 5 9 3 4 -6
-5 -9 -4 -11 3 -6 7 4 12 2 12 -3 0 -16 -16 -13 -30 4 -7 8 -16 12 -21 10 -4
-3 -27 13 -50 36 -28 28 -39 35 -34 20 3 -11 1 -29 -5 -41 -7 -13 -7 -20 0
-20 5 0 10 6 11 13 0 9 2 9 5 0 3 -7 12 -9 19 -7 8 3 24 -2 37 -11 l23 -17
-23 7 c-24 7 -82 -11 -82 -25 0 -23 67 -26 98 -4 12 8 30 14 40 12 12 -2 5
-10 -23 -24 -49 -25 -48 -38 3 -42 31 -2 42 2 67 28 38 39 54 39 21 -1 -41
-48 -35 -62 23 -57 27 1 47 0 44 -4 -2 -5 0 -8 6 -8 6 0 8 -7 5 -15 -7 -18 3
-65 15 -65 12 0 35 76 28 94 -4 10 1 20 13 26 16 8 20 5 30 -25 9 -27 9 -39 0
-50 -6 -7 -10 -26 -8 -42 2 -20 -4 -33 -19 -46 -13 -10 -23 -26 -23 -34 0 -22
29 -53 50 -53 13 0 16 -6 13 -23 -3 -14 3 -29 16 -41 29 -26 29 -86 1 -86 -13
0 -20 7 -20 19 0 10 -13 35 -30 56 l-30 38 0 -36 c0 -37 13 -56 26 -36 4 8 3
9 -4 5 -7 -4 -12 -1 -12 8 0 20 5 20 24 0 25 -25 20 -42 -10 -36 -20 4 -25 2
-19 -8 5 -8 4 -11 -3 -6 -13 8 -82 -19 -82 -32 0 -10 39 -47 60 -56 8 -3 4 -4
-9 -2 -14 3 -31 1 -37 -5 -16 -13 -81 -8 -74 6 3 6 22 10 42 9 20 0 35 3 32 8
-8 12 -72 10 -96 -3 -21 -11 -21 -12 3 -25 13 -7 38 -14 54 -14 23 0 27 -3 15
-10 -8 -5 -35 -7 -60 -4 -36 5 -50 2 -69 -13 l-24 -20 33 -6 c23 -5 41 -2 57
8 28 19 31 5 4 -19 -13 -11 -27 -15 -40 -11 -25 7 -28 -10 -7 -34 10 -12 11
-22 4 -41 -11 -26 -12 -24 -22 22 -4 15 -15 32 -26 38 -18 10 -20 8 -20 -21 0
-22 9 -39 30 -59 16 -15 30 -36 30 -45 0 -13 -7 -9 -29 14 -34 37 -51 39 -51
8 0 -33 26 -65 66 -82 19 -8 34 -19 34 -26 0 -9 -3 -9 -14 0 -8 7 -28 16 -46
21 -39 11 -47 -4 -26 -54 8 -20 11 -36 5 -36 -5 0 -12 8 -15 18 -19 57 -58 89
-100 80 -15 -3 -13 -7 10 -35 15 -18 31 -33 36 -33 10 0 8 20 -3 38 -13 20 8
14 28 -8 22 -24 18 -29 -29 -37 -24 -4 -36 -2 -36 6 0 22 -40 51 -70 51 -16 0
-30 -3 -30 -7 0 -16 35 -43 57 -43 14 0 21 -4 18 -10 -3 -5 -21 -9 -40 -7 -18
1 -31 5 -29 9 2 4 0 9 -6 13 -6 4 -10 -6 -10 -22 0 -16 -5 -34 -12 -41 -18
-18 -2 -14 34 8 18 11 42 20 52 20 18 0 18 -1 3 -18 -20 -22 -24 -53 -5 -34 7
7 19 12 27 12 8 0 27 11 41 25 24 23 30 24 56 14 l29 -11 -34 -11 c-44 -15
-52 -37 -14 -38 39 -2 56 1 67 11 5 6 -6 7 -27 3 -41 -6 -49 3 -14 16 16 7 31
4 55 -10 25 -14 32 -15 32 -4 0 15 -39 47 -50 40 -4 -2 -7 1 -8 8 -1 7 -5 27
-8 44 -7 36 -1 39 43 21 15 -6 31 -11 34 -10 3 0 6 -6 6 -14 0 -17 -7 -17 -31
1 -10 8 -23 12 -27 9 -5 -3 -9 0 -9 7 0 7 -3 10 -6 7 -6 -6 23 -68 32 -68 2 0
0 9 -6 19 -15 28 -13 33 9 19 11 -7 18 -16 15 -20 -3 -4 0 -16 5 -25 6 -10 11
-12 11 -5 0 7 13 12 31 12 26 0 29 2 20 14 -9 11 -9 20 -2 35 6 11 11 39 11
62 0 41 0 42 -20 24 -11 -10 -20 -25 -20 -34 0 -14 2 -14 10 -1 8 12 10 12 16
-3 3 -9 3 -25 0 -34 -6 -15 -9 -14 -29 5 -26 27 -33 114 -11 133 8 7 17 9 20
6 9 -9 -4 -39 -14 -33 -5 3 -9 -1 -9 -9 0 -28 18 -15 36 28 10 23 17 44 15 46
-2 2 -15 -4 -29 -13 -30 -20 -31 -15 -5 40 21 41 66 82 78 69 10 -10 -14 -40
-32 -39 -17 2 -20 -5 -10 -31 5 -13 11 -9 30 17 13 17 24 42 24 54 0 13 5 26
12 30 17 11 126 15 133 5 11 -18 -17 -69 -41 -75 -14 -4 -26 -16 -30 -30 -4
-19 -12 -24 -33 -24 -16 1 -33 -2 -40 -6 -16 -10 -14 -61 4 -76 14 -12 14 -15
-1 -31 -11 -12 -15 -28 -11 -46 4 -22 -3 -37 -35 -75 -60 -73 -129 -119 -165
-112 -20 4 -33 1 -42 -10 -12 -14 -16 -14 -38 4 -38 29 -73 10 -73 -42 0 -20
-6 -27 -22 -30 -12 -2 -28 -14 -35 -28 -12 -25 -34 -38 -65 -39 -27 -1 -22 34
7 47 13 6 31 25 40 42 15 28 14 30 -3 30 -10 0 -27 -9 -37 -20 -16 -18 -14
-25 8 -21 14 2 7 -17 -9 -23 -9 -3 -17 -6 -18 -6 -5 0 1 55 8 78 4 12 14 22
22 22 8 0 12 5 9 11 -4 6 1 16 11 23 16 12 16 14 -4 34 -23 23 -30 48 -10 36
6 -4 8 -3 4 4 -3 6 -1 14 5 18 9 5 10 -2 5 -27 -5 -24 -3 -30 5 -22 13 13 8
78 -6 77 -5 -1 -16 -14 -24 -30 -11 -22 -12 -34 -3 -58 10 -25 9 -33 -4 -46
-15 -14 -16 -13 -11 2 7 20 -11 78 -24 78 -17 0 -31 -44 -26 -82 5 -38 5 -39
-13 -23 -19 17 -40 13 -40 -8 0 -7 -7 -25 -16 -42 -8 -16 -13 -37 -11 -47 3
-10 0 -18 -8 -18 -7 0 -12 10 -11 23 1 19 -5 22 -39 25 l-40 3 39 -30 c21 -17
47 -31 57 -31 12 0 19 -7 19 -20 0 -29 -70 -29 -88 0 -7 11 -23 20 -36 20 -17
0 -26 7 -30 25 -13 50 -76 53 -91 4 -5 -15 -10 -18 -18 -10 -14 14 -54 14 -63
0 -4 -6 1 -10 12 -8 25 4 64 -10 64 -22 0 -5 -4 -9 -9 -9 -11 0 -142 48 -149
54 -12 12 20 33 43 28 26 -5 85 15 85 28 0 12 -44 20 -54 10 -7 -7 -6 -10 3
-10 7 0 9 -4 6 -10 -3 -5 -16 -10 -28 -10 -16 0 -23 6 -23 21 0 19 1 20 14 2
13 -16 14 -16 9 -1 -4 12 2 23 18 34 20 13 28 13 47 3 13 -7 40 -14 61 -15 37
-2 38 -1 21 17 -9 10 -22 19 -28 19 -6 0 -4 -5 4 -10 11 -7 7 -10 -17 -10 -46
0 -49 16 -5 24 54 9 77 7 109 -5 l28 -12 -24 -6 c-14 -4 -26 -11 -28 -17 -4
-12 9 -15 75 -17 31 -2 46 -7 54 -21 10 -17 12 -16 25 14 16 39 5 86 -27 115
-19 18 -20 17 -22 -11 -2 -41 -1 -46 8 -69 7 -20 7 -20 -14 -2 -11 11 -18 25
-15 33 8 20 -14 67 -37 82 -18 11 -20 10 -20 -16 0 -15 7 -37 15 -50 15 -21
15 -21 -7 -13 -13 5 -22 14 -21 20 2 6 -5 11 -15 11 -14 0 -15 2 -2 10 9 6 10
10 3 10 -7 0 -17 -9 -23 -20 -7 -13 -21 -20 -38 -20 l-27 1 26 14 c32 17 56
65 33 65 -29 0 -54 -21 -69 -55 -8 -21 -21 -35 -31 -35 -16 0 -16 2 -1 18 21
23 33 72 17 72 -24 0 -70 -58 -70 -89 0 -16 -5 -33 -10 -36 -6 -4 -10 12 -10
39 0 53 -9 57 -57 20 -18 -14 -33 -20 -33 -15 0 6 11 17 23 26 39 25 63 104
38 120 -12 7 -51 -42 -51 -64 -1 -14 -2 -14 -11 2 -8 13 -5 24 10 44 23 28 27
59 11 83 -16 23 -42 -17 -38 -57 2 -17 1 -30 -3 -27 -4 2 -12 -3 -18 -10 -9
-11 -9 -16 0 -22 8 -5 10 -3 4 7 -6 11 -5 11 5 2 7 -6 10 -17 8 -24 -3 -9 -11
-6 -27 10 -17 17 -20 25 -11 31 8 5 7 9 -5 14 -9 3 -21 6 -26 6 -17 0 31 -61
57 -72 30 -14 35 -29 22 -72 -9 -28 -14 -33 -25 -25 -7 6 -13 20 -13 31 0 17
3 18 15 8 20 -17 19 -1 -2 22 -22 25 -47 25 -34 -1 6 -10 8 -21 5 -24 -3 -3 4
-19 16 -35 13 -18 20 -37 16 -47 -5 -15 -9 -14 -36 5 -19 14 -30 30 -30 45 0
15 -10 31 -25 41 -19 13 -23 20 -14 30 6 7 9 25 7 41 -2 22 -9 29 -32 31 -16
2 -34 -2 -40 -8 -8 -10 -5 -11 16 -8 38 7 55 -14 40 -47 -7 -14 -20 -25 -31
-25 -23 0 -44 31 -36 52 8 21 -33 68 -58 68 -26 0 -38 17 -94 130 -38 77 -40
86 -26 102 11 12 13 27 9 53 -6 28 -4 35 9 35 8 0 21 11 27 25 9 21 8 28 -7
45 -10 11 -27 20 -37 20 -15 0 -18 5 -13 20 4 13 -1 27 -17 43 -29 28 -29 101
0 95 9 -2 19 -15 22 -29 5 -25 42 -79 54 -79 11 0 6 56 -6 68 -19 19 7 14 32
-6 18 -14 21 -23 13 -38 -10 -21 -10 -26 1 -66 10 -36 22 -36 31 0 l7 27 9
-24 c10 -24 10 -114 1 -138 -7 -22 -22 -3 -22 28 0 18 4 28 10 24 6 -3 10 -2
10 2 0 11 -21 33 -31 33 -12 0 -2 -75 12 -98 10 -17 10 -25 -5 -47 -10 -15
-20 -24 -23 -21 -3 3 -12 -2 -19 -12 -12 -16 -13 -15 -14 5 0 28 10 53 22 53
5 0 6 -5 3 -10 -3 -6 -1 -10 4 -10 14 0 14 2 0 37 l-11 28 -14 -34 c-8 -18
-14 -48 -14 -66 0 -18 -6 -35 -12 -38 -8 -2 -2 -10 14 -17 23 -11 26 -17 21
-43 -5 -23 -3 -29 8 -25 8 3 24 -3 36 -14 21 -20 93 -42 93 -29 0 4 -12 18
-27 32 -15 13 -21 16 -14 7 12 -16 11 -18 -8 -18 -14 0 -20 4 -15 12 4 7 3 8
-4 4 -7 -4 -18 -4 -24 0 -14 9 69 33 89 27 6 -3 14 -15 17 -28 3 -13 20 -34
38 -46 l31 -23 -6 32 c-6 30 -5 32 12 22 11 -5 31 -25 45 -42 14 -18 26 -28
26 -21 0 6 -5 15 -10 18 -7 4 -7 12 0 25 5 10 10 25 9 32 0 7 -4 4 -9 -7 -5
-11 -9 -14 -9 -6 -1 8 -7 11 -17 7 -9 -3 -25 1 -37 9 -21 15 -21 15 11 15 44
0 80 19 61 31 -23 14 -71 10 -90 -7 -11 -10 -25 -14 -36 -9 -15 5 -13 8 12 19
17 7 36 20 43 28 11 13 9 17 -13 22 -32 8 -90 -16 -105 -43 -6 -12 -18 -21
-27 -21 -15 0 -15 1 -1 13 17 13 48 58 48 68 0 12 -64 17 -89 7 -21 -7 -22 -7
-11 7 7 8 28 15 50 15 39 0 90 38 90 67 0 19 -46 9 -72 -14 -16 -15 -18 -15
-18 0 0 10 15 23 34 31 51 21 92 91 47 79 -24 -6 -57 -41 -48 -50 4 -3 7 -1 7
5 0 6 10 17 23 23 21 11 21 11 7 -6 -8 -10 -14 -21 -12 -24 1 -3 -9 -6 -23 -7
-22 -1 -24 2 -18 25 3 14 9 27 12 29 23 10 34 22 27 29 -5 4 -11 2 -13 -5 -5
-14 -34 19 -47 53 -7 18 -5 18 17 -3 23 -22 77 -31 77 -13 0 5 -12 19 -26 30
-32 25 -99 30 -90 6 7 -19 -3 -47 -15 -39 -13 8 -11 54 2 54 6 0 8 7 5 16 -5
13 -2 14 11 9 21 -9 71 -10 80 -1 10 10 -17 35 -51 46 -24 7 -41 8 -61 0 -20
-7 -31 -8 -39 0 -7 7 -3 10 12 10 25 0 72 20 72 31 0 14 -73 68 -84 62 -6 -3
-1 5 10 18 27 30 47 69 37 69 -19 0 -72 -40 -78 -59 -7 -22 -29 -28 -40 -11
-12 19 8 61 36 76 16 8 31 25 35 38 4 18 11 22 30 18 13 -2 31 1 39 8 19 16
19 54 0 70 -12 10 -12 15 1 35 9 13 12 33 9 47 -7 26 25 74 77 116 l28 24 0
-31 c0 -17 -3 -30 -7 -30 -5 1 -18 1 -30 0 -22 -1 -22 -1 -4 -33 14 -24 17
-39 10 -55 -13 -35 -22 -27 -16 12 3 21 2 33 -4 30 -5 -4 -9 -30 -9 -58 l0
-52 20 25 c11 14 20 33 20 42 0 25 15 30 46 13 16 -8 39 -15 51 -15 20 0 21 3
11 38 -5 20 -14 42 -20 47 -5 6 -4 -3 2 -19 14 -39 7 -56 -22 -49 -25 6 -68
41 -68 55 0 4 9 8 19 8 15 0 18 5 14 21 -6 20 -4 20 18 8 13 -7 25 -10 26 -8
5 9 43 -31 43 -45 0 -19 57 -66 81 -66 25 0 24 13 -4 46 -14 16 -29 24 -36 20
-9 -6 -9 -11 0 -22 14 -17 -2 -19 -19 -2 -21 21 -13 35 20 36 22 1 39 -7 59
-29 19 -20 37 -29 58 -29 17 0 31 4 31 9 0 14 -50 51 -69 52 -10 0 -6 4 9 10
19 8 27 6 36 -5 18 -25 37 -20 30 8 -4 18 0 28 18 39 13 9 26 13 30 10 10 -10
7 -47 -5 -63 -8 -11 -9 -5 -5 24 4 27 2 36 -5 29 -13 -13 -15 -71 -2 -84 18
-18 45 54 33 86 -7 18 -7 33 0 46 14 25 23 24 15 -2 -7 -21 11 -79 25 -79 16
0 32 59 25 92 -7 32 -7 33 12 15 17 -15 22 -16 32 -3 7 8 15 31 18 51 4 26 8
33 14 23 5 -9 3 -29 -4 -47 -10 -27 -9 -37 8 -68 32 -58 49 -56 43 6 -4 42 -3
49 8 40 8 -6 14 -26 14 -43 0 -31 30 -76 50 -76 15 0 12 43 -6 68 -16 23 -15
26 10 16 9 -3 16 -14 16 -24 0 -28 18 -33 32 -10 7 11 23 20 35 20 20 0 20 -1
-8 -29 -31 -32 -37 -51 -15 -51 22 0 66 40 66 60 0 23 13 32 51 36 30 4 37 -8
20 -35 -7 -11 -10 -8 -16 10 l-8 23 -18 -23 c-20 -24 -26 -71 -10 -71 24 0 69
61 73 99 3 40 3 40 -20 25 -20 -13 -25 -13 -44 1 -13 8 -40 15 -62 15 -38 0
-39 0 -21 -20 10 -11 23 -20 29 -20 6 0 4 4 -4 10 -12 8 -12 10 3 16 20 7 47
-1 47 -15 0 -16 -74 -23 -121 -11 -24 6 -55 20 -69 30 -24 19 -24 20 -3 20 12
0 29 -3 38 -6 13 -5 14 -8 3 -15 -10 -7 -10 -9 2 -9 21 0 46 18 37 26 -4 4
-32 8 -62 9 -42 1 -59 7 -70 21 -20 27 -18 37 4 24 21 -11 61 -14 61 -5 0 14
-57 54 -76 55 -13 0 -24 8 -27 20 -4 17 0 20 32 20 25 0 44 -7 56 -20z m150
-11 c-1 -16 -10 -38 -19 -47 -16 -16 -18 -16 -36 6 -27 33 -19 56 21 63 19 4
34 7 35 8 0 0 0 -13 -1 -30z m85 -11 c0 -10 -32 -10 -54 -2 -9 3 -16 12 -16
19 0 9 8 10 35 1 19 -6 35 -14 35 -18z m-331 -54 c1 -16 -5 -38 -12 -48 -13
-18 -15 -17 -35 9 -13 17 -21 40 -20 61 1 32 2 33 19 18 16 -14 18 -14 25 8 7
22 7 22 15 3 4 -11 8 -34 8 -51z m-198 36 c-25 -21 -46 -26 -55 -11 -6 9 36
29 64 30 10 0 7 -6 -9 -19z m263 -6 c9 -8 16 -17 16 -19 0 -8 -41 9 -51 21
-17 20 15 19 35 -2z m-311 -63 c-7 -27 -27 -32 -52 -15 -27 20 -27 48 2 62 18
8 25 7 39 -9 9 -10 14 -28 11 -38z m-100 -2 c-11 -12 -29 -19 -39 -17 -15 3
-12 7 16 25 40 26 53 21 23 -8z m798 -14 c23 8 24 3 4 -35 -19 -38 -54 -58
-66 -39 -11 19 -4 55 18 88 l18 26 3 -23 c3 -17 8 -21 23 -17z m-393 -48 c-2
-10 -7 -19 -12 -20 -12 -2 -27 53 -19 66 9 14 34 -24 31 -46z m-126 8 c3 -14
1 -25 -3 -25 -5 0 -6 -7 -3 -15 4 -8 2 -15 -4 -15 -14 0 -21 22 -15 53 7 34
19 35 25 2z m708 -36 c0 -13 -12 -11 -38 7 -12 8 -22 22 -22 30 0 12 6 11 30
-6 17 -12 30 -26 30 -31z m-507 -32 c-8 -12 -33 20 -33 42 1 12 6 10 20 -8 11
-12 17 -28 13 -34z m119 6 c-10 -16 -42 -28 -42 -14 0 12 23 31 37 31 10 0 11
-5 5 -17z m424 -4 c24 -27 8 -54 -32 -54 -35 0 -44 27 -18 56 22 24 27 24 50
-2z m-1292 -146 c-31 -22 -35 -14 -12 22 21 31 23 32 26 13 2 -13 -4 -27 -14
-35z m10 -44 c27 -40 -9 -71 -50 -44 -21 13 -22 18 -12 40 14 31 42 32 62 4z
m1431 -20 c19 -36 17 -40 -13 -32 -22 5 -27 19 -16 47 8 22 11 21 29 -15z
m-256 12 c11 -7 9 -10 -8 -16 -24 -7 -44 2 -36 16 8 11 26 11 44 0z m211 -21
c0 -3 -5 -11 -12 -18 -9 -9 -7 -12 12 -12 43 0 -1 -31 -51 -36 -33 -3 -39 -2
-24 5 17 8 17 10 3 10 -24 1 -12 28 19 45 27 13 53 17 53 6z m-110 -10 c0 -13
-34 -30 -59 -30 -30 0 -26 17 7 28 36 14 52 14 52 2z m-1360 -65 c-22 -26 -30
-5 -12 32 17 36 17 36 20 9 2 -15 -2 -34 -8 -41z m1500 -12 c0 -22 -17 -49
-25 -41 -8 8 5 58 16 58 5 0 9 -8 9 -17z m-1450 -52 c0 -13 -28 -33 -41 -29
-8 3 -6 9 5 21 19 18 36 22 36 8z m1530 -30 c5 -18 5 -31 0 -31 -15 0 -32 40
-26 57 8 20 14 14 26 -26z m-1619 -75 c-26 -25 -29 -21 -23 28 l5 40 19 -24
c19 -23 19 -24 -1 -44z m100 27 c16 -10 29 -21 29 -25 0 -23 -80 -37 -109 -19
-11 7 -10 11 5 19 14 8 16 13 7 24 -18 21 32 22 68 1z m1517 -2 c9 -5 16 -35
19 -76 4 -51 2 -66 -7 -60 -7 4 -10 22 -8 41 4 31 2 34 -24 34 -40 0 -56 33
-26 54 26 18 28 19 46 7z m-1568 -96 c7 -14 11 -27 8 -30 -8 -8 -38 24 -38 41
0 22 15 17 30 -11z m131 -1 c9 -11 7 -14 -10 -14 -33 0 -67 20 -51 30 16 10
46 2 61 -16z m-195 -71 c4 -13 3 -31 -2 -40 -6 -15 -9 -12 -12 12 -2 17 -10
35 -19 42 -13 10 -12 12 6 10 13 -1 24 -10 27 -24z m227 -3 c9 -11 12 -20 6
-20 -17 0 -49 20 -49 30 0 17 25 11 43 -10z m-179 -63 c34 -25 -7 -80 -44 -57
-26 16 -15 70 14 70 7 0 20 -6 30 -13z m1557 -18 c15 -7 24 -7 35 2 12 10 13
6 8 -22 -4 -19 -10 -38 -14 -43 -10 -10 -33 31 -25 44 7 12 3 12 -20 4 -15 -6
-15 -8 1 -25 15 -17 14 -18 -23 -13 -47 6 -86 39 -63 54 20 13 77 13 101 -1z
m-1627 -32 c5 -21 4 -27 -5 -21 -9 5 -11 -3 -6 -32 4 -22 3 -33 -2 -24 -12 22
-22 108 -10 89 7 -11 9 -10 9 5 0 25 5 18 14 -17z m42 -41 c11 -17 13 -30 6
-42 -11 -19 -17 -12 -27 34 -8 38 -1 41 21 8z m214 -36 c-8 -5 -10 -10 -5 -10
19 -1 -29 -30 -49 -30 -18 0 -18 1 4 25 13 14 33 25 44 25 17 0 18 -2 6 -10z
m1180 -5 c0 -11 -40 -24 -55 -19 -13 6 -14 8 -3 15 14 9 58 12 58 4z m179 -99
c-13 -35 -29 -40 -29 -9 0 17 30 56 38 49 2 -3 -2 -20 -9 -40z m-1393 12 c9
-15 -52 -67 -77 -65 -12 1 -15 5 -9 11 16 16 12 26 -11 26 -12 0 -17 4 -14 11
17 26 98 39 111 17z m93 -34 c-11 -13 -60 -25 -72 -17 -15 9 27 32 55 30 18
-1 23 -5 17 -13z m1255 0 c20 -8 21 -48 2 -63 -28 -23 -73 19 -60 54 6 16 31
19 58 9z m-204 -105 c0 -17 -18 -9 -39 17 -29 36 -14 55 16 20 12 -15 23 -31
23 -37z m-1056 29 c9 -12 13 -24 11 -27 -6 -5 -45 29 -45 41 0 15 19 8 34 -14z
m1290 -14 c-12 -9 -12 -13 -2 -17 10 -4 10 -6 0 -6 -19 -1 -26 27 -12 45 11
12 15 12 21 2 5 -8 3 -17 -7 -24z m-1142 -47 c-3 -12 -8 -15 -15 -8 -5 5 -6
22 -2 38 7 25 8 26 15 8 4 -11 5 -28 2 -38z m1098 48 c0 -12 -33 -55 -41 -55
-14 0 -10 22 8 42 15 17 33 24 33 13z m-1358 -72 c10 -9 18 -26 18 -37 0 -19
-3 -18 -25 9 -36 44 -31 63 7 28z m979 -9 c9 -11 8 -14 -9 -14 -27 0 -48 25
-22 27 10 1 24 -5 31 -13z m-680 -36 c-5 -15 -14 -29 -20 -32 -17 -11 -20 8
-5 43 17 42 41 30 25 -11z m-305 -24 c-5 -12 -2 -15 10 -10 12 5 15 2 10 -9
-4 -11 0 -15 11 -13 10 2 18 -3 19 -9 1 -7 2 -19 3 -25 1 -8 10 -3 21 10 15
19 23 21 38 13 20 -11 37 -41 24 -41 -4 0 -17 7 -29 15 -18 12 -23 13 -32 1
-10 -11 -8 -17 6 -25 10 -6 14 -11 9 -11 -16 0 -104 94 -99 107 3 7 7 13 10
13 3 0 2 -7 -1 -16z m1044 6 c0 -11 -33 -30 -51 -30 -8 0 -5 7 6 20 19 21 45
27 45 10z m-620 -18 c0 -10 -11 -29 -25 -42 -23 -22 -25 -22 -25 -4 0 22 26
64 41 64 5 0 9 -8 9 -18z m190 -11 c17 -33 12 -46 -10 -26 -21 19 -27 45 -10
45 5 0 14 -9 20 -19z m200 -42 c0 -42 -14 -52 -25 -18 -9 26 2 72 15 64 6 -3
10 -24 10 -46z m480 38 c0 -1 -13 -15 -29 -30 -21 -19 -32 -24 -37 -16 -5 8
-3 9 5 5 8 -6 11 -2 9 10 -2 13 2 18 14 16 9 -1 19 2 23 8 6 9 15 14 15 7z
m-961 -38 c2 -19 -12 -57 -46 -118 -1 -2 -17 6 -35 17 -34 22 -34 21 16 36 8
3 17 -3 19 -12 3 -10 5 -5 6 11 1 24 -1 26 -18 17 -16 -8 -19 -7 -16 8 2 9 4
20 4 24 2 13 45 48 56 45 5 -2 12 -14 14 -28z m361 -28 c-1 -34 -2 -35 -15
-17 -8 11 -15 33 -15 49 0 25 2 28 15 17 8 -7 15 -28 15 -49z m-65 -12 c11
-16 -2 -22 -32 -15 -21 6 -24 9 -12 17 19 12 36 11 44 -2z m137 -16 c20 -24
29 -65 18 -83 -8 -12 -10 -12 -16 4 -5 14 -9 15 -15 4 -12 -19 -11 -28 4 -23
12 4 54 -21 46 -29 -2 -2 -22 -7 -43 -10 -35 -7 -38 -6 -27 8 9 11 10 20 2 35
-18 33 -12 111 9 111 4 0 14 -8 22 -17z m259 -2 c20 -16 22 -23 13 -38 -14
-23 -41 -28 -59 -13 -18 15 -19 42 -3 58 16 16 22 15 49 -7z m68 -14 c-34 -24
-51 -19 -29 8 7 8 24 15 38 15 24 0 24 -1 -9 -23z m-553 -62 c10 -39 -2 -57
-33 -53 -35 4 -45 45 -17 65 27 20 43 16 50 -12z m434 7 c0 -10 -62 -33 -69
-26 -9 8 30 34 51 34 10 0 18 -4 18 -8z m82 -5 c-12 -7 -20 -15 -18 -18 3 -3
-9 -6 -26 -7 -17 -1 -36 -9 -42 -16 -6 -7 -20 -16 -31 -20 -18 -6 -19 -5 -3 7
10 8 14 17 10 21 -4 4 -2 6 3 5 6 -2 25 5 43 14 17 10 32 14 32 10 0 -4 5 -2
12 5 7 7 19 12 28 12 10 -1 7 -5 -8 -13z m-441 -47 c5 0 9 -4 9 -10 0 -5 -19
-10 -42 -10 -40 1 -42 2 -23 16 11 8 26 12 33 9 8 -3 18 -5 23 -5z"/>
<path d="M460 1551 c0 -6 5 -13 10 -16 24 -15 7 -24 -17 -9 -26 15 -27 15 -8
-1 26 -21 55 -37 55 -30 0 10 -30 65 -35 65 -3 0 -5 -4 -5 -9z"/>
<path d="M1430 1532 c15 -30 9 -36 -16 -16 -10 8 -13 12 -5 8 10 -5 12 -3 6 6
-12 19 -65 -43 -65 -74 0 -30 9 -56 20 -56 13 0 32 58 25 79 -5 17 -2 19 25
16 17 -2 35 -7 40 -10 18 -11 10 10 -16 40 -20 24 -23 25 -14 7z m-48 -88
c-13 -23 -25 -1 -16 28 6 19 7 19 16 5 5 -10 5 -23 0 -33z"/>
<path d="M421 1482 c0 -4 4 -16 9 -27 5 -14 2 -27 -14 -45 -12 -14 -28 -38
-34 -53 -11 -25 -10 -28 5 -25 11 2 17 11 15 22 -5 28 6 46 23 40 8 -3 12 -10
9 -15 -3 -5 -11 -6 -17 -2 -8 4 -7 1 1 -9 16 -20 -1 -67 -44 -115 -31 -36 -44
-41 -44 -17 0 9 5 12 12 8 7 -4 8 -3 4 4 -4 7 -4 17 0 23 4 8 9 7 15 -2 6 -10
9 -5 9 16 l0 30 -25 -30 c-13 -16 -24 -42 -25 -57 0 -20 -7 -29 -27 -36 l-28
-9 35 -21 c40 -25 74 -27 110 -7 l25 14 -37 15 c-20 9 -45 13 -55 9 -16 -5
-17 -4 -3 11 13 13 21 14 47 4 24 -9 37 -9 62 1 17 8 31 17 31 22 0 15 -50 22
-76 11 -22 -11 -23 -10 -12 8 8 12 24 20 40 20 16 0 28 5 28 11 0 5 -6 7 -12
3 -7 -4 -10 -4 -6 1 4 4 3 14 -2 20 -7 8 -7 21 -1 36 10 24 10 24 10 2 1 -22
36 -63 54 -63 18 0 -3 65 -28 87 -14 12 -25 29 -25 37 0 9 10 4 29 -15 39 -39
55 -38 47 3 -3 17 -11 37 -18 45 -13 16 -88 54 -87 45z m89 -86 c-1 -18 -5
-17 -30 13 -16 19 -27 38 -24 43 9 15 54 -33 54 -56z m-60 -165 c0 -10 -24
-21 -47 -21 -13 0 -13 3 -3 15 13 16 50 21 50 6z m-56 -60 c3 -5 -1 -12 -10
-15 -23 -9 -46 -7 -40 3 4 5 -3 7 -14 4 -11 -3 -20 0 -20 6 0 13 76 15 84 2z"/>
<path d="M1348 1260 c-25 -26 -29 -37 -26 -70 2 -22 0 -40 -4 -40 -5 0 -8 -12
-8 -27 0 -16 -5 -35 -11 -43 -9 -13 -10 -13 -6 1 3 9 2 21 -3 28 -13 23 -47
-5 -62 -51 -17 -50 -14 -68 13 -68 23 0 36 27 21 42 -7 7 -10 5 -9 -7 1 -10
-3 -20 -10 -22 -17 -6 -2 68 19 94 18 23 30 2 13 -23 -20 -31 -1 -31 29 0 15
14 29 46 36 81 11 54 44 105 69 105 5 0 -4 -13 -20 -29 -36 -37 -40 -76 -6
-65 34 10 46 23 73 76 l24 48 -51 0 c-43 0 -55 -5 -81 -30z"/>
<path d="M1587 1254 c-26 -14 -47 -42 -47 -63 0 -12 55 2 76 20 8 6 14 8 14 3
0 -17 -15 -29 -45 -39 -31 -11 -65 -58 -52 -72 12 -12 61 20 65 42 3 18 2 18
-13 -2 -17 -24 -40 -31 -32 -10 2 6 10 11 16 9 7 -1 10 2 7 7 -8 13 9 22 27
15 20 -7 10 -44 -17 -66 l-21 -17 26 -10 c30 -11 40 -30 32 -60 -4 -15 -2 -20
8 -16 8 3 20 -4 27 -15 12 -20 11 -20 -7 -11 -30 16 -81 14 -81 -4 0 -32 85
-55 135 -36 19 8 19 8 -3 20 -17 9 -21 18 -16 33 3 11 3 41 -1 66 -6 43 -8 45
-21 27 -16 -22 -19 -39 -4 -30 13 8 23 -17 18 -47 -3 -21 -6 -19 -25 17 -12
22 -24 63 -28 90 l-6 50 20 -22 c10 -13 22 -23 25 -23 11 0 6 70 -6 90 -10 16
-10 24 0 40 6 11 12 21 12 22 0 10 -61 3 -83 -8z m38 -13 c-3 -6 -11 -8 -17
-5 -7 4 -8 2 -4 -4 7 -11 -32 -38 -41 -28 -8 8 18 37 42 46 23 9 30 6 20 -9z
m35 -77 c0 -26 -17 -33 -26 -9 -8 20 3 48 16 40 5 -3 10 -17 10 -31z m-7 -211
c26 -14 28 -18 14 -21 -29 -6 -67 7 -67 23 0 19 14 19 53 -2z"/>
<path d="M636 1193 c-8 -10 -30 -38 -48 -63 -19 -25 -50 -53 -71 -62 l-36 -18
25 -26 26 -25 24 21 c12 12 34 47 48 76 27 57 40 70 30 29 -3 -14 -3 -33 0
-42 6 -13 12 -9 32 21 32 46 40 42 18 -9 -20 -49 -12 -85 21 -85 31 0 39 14
23 39 -10 17 -9 29 11 73 12 29 25 59 28 66 11 27 -30 10 -73 -30 l-46 -42 7
47 c8 50 3 57 -19 30z"/>
<path d="M1240 1196 c0 -7 9 -25 21 -40 17 -21 24 -24 35 -15 20 16 17 47 -5
59 -27 14 -51 13 -51 -4z"/>
<path d="M841 1143 c-7 -21 -20 -48 -27 -60 -16 -26 -44 -31 -44 -8 0 8 9 15
20 15 13 0 20 7 20 20 0 29 -36 26 -56 -5 -25 -39 -11 -64 36 -62 23 1 40 6
40 13 0 6 9 22 21 35 18 21 20 21 14 4 -17 -48 -17 -55 -2 -55 9 0 19 5 22 10
5 8 11 8 19 0 7 -5 28 -9 46 -7 25 3 35 11 46 36 17 41 27 40 18 -4 -7 -37 9
-48 34 -23 8 8 12 8 12 1 0 -13 108 -13 128 0 15 10 16 31 0 21 -8 -5 -9 -2
-5 9 4 10 10 24 13 32 4 10 0 15 -10 15 -9 0 -16 -6 -16 -13 0 -17 -27 -54
-34 -47 -3 3 6 29 19 58 17 37 20 52 11 52 -7 0 -18 -11 -24 -25 -8 -17 -20
-25 -36 -25 -17 0 -30 -10 -45 -36 -22 -37 -41 -42 -22 -6 17 32 13 41 -18 40
-23 -1 -33 -8 -41 -29 -12 -28 -35 -43 -51 -33 -16 10 -10 23 13 26 33 5 37
38 4 38 -18 0 -30 -9 -41 -31 -9 -17 -19 -29 -22 -26 -2 3 0 14 6 25 16 29 14
35 -9 29 -21 -5 -28 7 -10 18 15 9 12 35 -3 35 -7 0 -19 -17 -26 -37z m279
-32 c0 -21 -13 -41 -26 -41 -17 0 -18 22 -2 38 14 14 28 16 28 3z"/>
<path d="M1540 1047 c0 -16 26 -41 53 -50 9 -4 17 -2 17 3 0 6 -7 10 -16 10
-8 0 -12 5 -9 11 4 6 14 8 24 4 14 -5 14 -4 1 8 -22 21 -70 31 -70 14z"/>
<path d="M1309 1010 c-7 -22 -18 -45 -26 -51 -17 -14 -17 2 0 21 10 12 9 12
-5 1 -10 -7 -18 -20 -18 -28 0 -30 36 -7 57 37 25 51 27 60 13 60 -5 0 -15
-18 -21 -40z"/>
<path d="M680 953 c-42 -21 -63 -59 -49 -85 12 -22 32 -23 49 -3 10 12 10 18
1 29 -10 12 -8 17 9 26 12 6 23 10 26 8 2 -2 -8 -46 -21 -97 -14 -51 -25 -97
-25 -102 0 -5 13 -9 29 -9 25 0 29 4 35 38 9 58 7 122 -5 122 -5 0 -7 5 -3 11
4 8 9 7 15 -2 8 -12 11 -11 19 1 7 12 10 8 10 -15 0 -24 -2 -27 -11 -15 -8 12
-9 11 -5 -5 2 -11 7 -46 11 -78 6 -56 8 -58 33 -55 23 3 29 12 54 88 l28 85
-6 -73 c-7 -80 2 -102 42 -102 13 0 29 6 36 14 11 12 16 12 31 -2 15 -13 23
-14 48 -5 16 6 29 7 29 2 0 -5 14 -9 30 -9 27 0 30 3 30 34 0 55 11 96 27 96
11 0 12 -11 7 -52 -4 -29 -7 -57 -8 -63 0 -5 13 -11 31 -13 l32 -3 3 62 c2 39
8 64 16 67 9 3 12 -13 12 -57 0 -57 1 -61 27 -67 15 -4 34 -2 46 5 14 9 22 10
30 2 16 -16 49 -14 75 5 32 22 29 46 -4 38 l-26 -7 7 65 7 65 -31 -5 c-29 -4
-31 -7 -37 -64 -5 -45 -10 -58 -22 -56 -11 2 -15 17 -16 58 -1 53 -2 55 -29
58 -16 2 -34 -2 -42 -8 -10 -8 -15 -8 -20 1 -5 7 -21 9 -41 6 -19 -3 -34 -2
-34 2 0 4 -13 6 -30 3 -27 -4 -30 -8 -30 -41 0 -55 -10 -81 -31 -81 -10 0 -17
6 -14 13 2 6 6 35 9 63 l6 50 -34 -4 c-35 -4 -35 -4 -38 -60 -2 -46 -6 -57
-22 -60 -18 -4 -18 1 -12 97 l8 101 -34 0 c-30 0 -36 -4 -47 -36 -7 -20 -23
-57 -34 -83 l-21 -46 -11 80 -10 80 -35 3 c-19 1 -51 -6 -70 -15z"/>
<path d="M987 963 c-15 -14 -6 -41 15 -47 32 -8 56 17 38 38 -13 16 -42 21
-53 9z"/>
<path d="M1350 954 c-18 -21 9 -49 39 -39 25 7 28 40 5 49 -23 9 -30 8 -44
-10z"/>
<path d="M1685 769 c-21 -39 -15 -44 23 -22 35 20 48 40 27 40 -8 0 -13 -5
-12 -11 1 -5 -6 -12 -16 -14 -16 -3 -17 -1 -7 17 6 12 8 21 6 21 -3 0 -13 -14
-21 -31z"/>
<path d="M1239 371 c10 -7 8 -12 -10 -25 -31 -21 -15 -21 22 1 36 22 37 33 2
33 -20 0 -24 -3 -14 -9z"/>
<path d="M1319 1678 c-1 -7 -3 -25 -5 -41 -3 -33 7 -28 37 16 l23 32 -28 -25
-28 -25 7 28 c4 15 4 27 1 27 -3 0 -7 -6 -7 -12z"/>
<path d="M1682 882 c-8 -6 -1 -14 24 -26 20 -9 38 -15 41 -13 2 2 -11 11 -29
18 l-33 14 35 6 c34 6 34 6 5 8 -16 0 -36 -3 -43 -7z"/>
<path d="M295 679 c-16 -7 -13 -8 13 -4 l33 5 -28 -26 -28 -26 32 22 c18 11
35 25 38 30 8 13 -34 12 -60 -1z"/>
<path d="M624 348 l-29 -33 28 25 29 25 -8 -30 c-4 -16 -4 -27 0 -24 6 6 17
69 12 69 -1 0 -15 -15 -32 -32z"/>
</g>
</svg>
